<?xml version="1.0" standalone="no"?><!DOCTYPE svg PUBLIC "-//W3C//DTD SVG 1.1//EN" "http://www.w3.org/Graphics/SVG/1.1/DTD/svg11.dtd"><svg t="1554360856003" class="icon" style="" viewBox="0 0 1024 1024" version="1.1" xmlns="http://www.w3.org/2000/svg" p-id="1962" xmlns:xlink="http://www.w3.org/1999/xlink" width="200" height="200"><defs><style type="text/css"></style></defs><path d="M512 0.48512C229.4976 0.48512 0.48512 229.4976 0.48512 512c0 282.50112 229.01248 511.51488 511.51488 511.51488 282.50112 0 511.51488-229.01376 511.51488-511.51488C1023.51488 229.4976 794.50112 0.48512 512 0.48512zM784.73472 671.30496c-25.33632 25.33632-66.41536 25.33632-91.75168 0L512 490.32192 331.01696 671.30496c-25.33632 25.33632-66.41536 25.33632-91.75168 0-25.33632-25.33632-25.33632-66.41536 0-91.75168l226.85952-226.85952c25.33632-25.33632 66.41536-25.33632 91.75168 0l226.85952 226.85952C810.07232 604.8896 810.07232 645.96864 784.73472 671.30496z" p-id="1963" fill="#259b24"></path></svg>